HIERARCHY
ROOT Hips
{
 OFFSET 0.000000 0.000000 0.000000
 CHANNELS 6 Xposition Yposition Zposition Yrotation Xrotation Zrotation
 JOINT Chest
 {
  OFFSET 0.000000 9.585900 0.002600
  CHANNELS 3 Yrotation Xrotation Zrotation
  JOINT Chest2
  {
   OFFSET 0.000000 9.601200 -0.005300
   CHANNELS 3 Yrotation Xrotation Zrotation
   JOINT Chest3
   {
    OFFSET 0.000000 9.561800 0.000000
    CHANNELS 3 Yrotation Xrotation Zrotation
    JOINT Chest4
    {
     OFFSET 0.000000 9.552100 0.000000
     CHANNELS 3 Yrotation Xrotation Zrotation
     JOINT Neck
     {
      OFFSET 0.000000 14.453000 0.000000
      CHANNELS 3 Yrotation Xrotation Zrotation
      JOINT Head
      {
       OFFSET 0.000000 8.936500 -0.011300
       CHANNELS 3 Yrotation Xrotation Zrotation
       End Site
       {
        OFFSET 0.000000 17.073600 -0.006000
       }
      }
     }
     JOINT RightCollar
     {
      OFFSET -2.921100 9.558500 0.000000
      CHANNELS 3 Yrotation Xrotation Zrotation
      JOINT RightShoulder
      {
       OFFSET -13.519700 0.000000 0.000000
       CHANNELS 3 Yrotation Xrotation Zrotation
       JOINT RightElbow
       {
        OFFSET 0.000000 -29.696600 0.000000
        CHANNELS 3 Yrotation Xrotation Zrotation
        JOINT RightWrist
        {
         OFFSET 0.000000 -24.004700 0.000000
         CHANNELS 3 Yrotation Xrotation Zrotation
         End Site
         {
          OFFSET 0.000000 -17.728500 0.000000
         }
        }
       }
      }
     }
     JOINT LeftCollar
     {
      OFFSET 2.921100 9.558500 0.000000
      CHANNELS 3 Yrotation Xrotation Zrotation
      JOINT LeftShoulder
      {
       OFFSET 13.519700 0.000000 0.000000
       CHANNELS 3 Yrotation Xrotation Zrotation
       JOINT LeftElbow
       {
        OFFSET 0.000000 -29.696600 0.000000
        CHANNELS 3 Yrotation Xrotation Zrotation
        JOINT LeftWrist
        {
         OFFSET 0.000000 -24.004700 0.000000
         CHANNELS 3 Yrotation Xrotation Zrotation
         End Site
         {
          OFFSET 0.000000 -17.728500 0.000000
         }
        }
       }
      }
     }
    }
   }
  }
 }
 JOINT RightHip
 {
  OFFSET -7.771700 -0.012900 -0.001300
  CHANNELS 3 Yrotation Xrotation Zrotation
  JOINT RightKnee
  {
   OFFSET 0.000000 -40.869800 0.001200
   CHANNELS 3 Yrotation Xrotation Zrotation
   JOINT RightAnkle
   {
    OFFSET 0.000000 -39.717900 0.002100
    CHANNELS 3 Yrotation Xrotation Zrotation
    JOINT RightToe
    {
     OFFSET 0.000000 -4.965400 11.033500
     CHANNELS 3 Yrotation Xrotation Zrotation
     End Site
     {
      OFFSET 0.000000 -1.423100 5.872300
     }
    }
   }
  }
 }
 JOINT LeftHip
 {
  OFFSET 7.771700 -0.012900 -0.001300
  CHANNELS 3 Yrotation Xrotation Zrotation
  JOINT LeftKnee
  {
   OFFSET 0.000000 -40.869800 0.001200
   CHANNELS 3 Yrotation Xrotation Zrotation
   JOINT LeftAnkle
   {
    OFFSET 0.000000 -39.717900 0.002100
    CHANNELS 3 Yrotation Xrotation Zrotation
    JOINT LeftToe
    {
     OFFSET 0.000000 -4.965400 11.033500
     CHANNELS 3 Yrotation Xrotation Zrotation
     End Site
     {
      OFFSET 0.000000 -1.423100 5.872300
     }
    }
   }
  }
 }
}
MOTION
Frames: 13
Frame Time: 0.008333
-49.384763 57.896251 11.728997 179.593736 -51.743507 -2.987112 2.776555 23.041258 2.829448 1.413016 13.141784 1.502515 1.832485 16.438120 1.932233 1.415276 13.166245 1.487588 1.140104 15.648787 3.954635 0.664412 -6.780077 6.908267 2.037685 2.235150 0.531694 -4.205312 -17.912167 -7.888904 -31.982785 -10.559959 88.597874 -10.359041 -8.783441 -25.061881 -11.141530 -2.971140 -2.048077 -5.086285 -18.474003 14.548823 69.548775 -36.924109 -138.124726 -5.738666 4.698746 -29.955005 3.925493 -19.523896 -4.350968 -31.185294 74.207469 -35.867140 6.247656 -14.589662 12.228520 0.031736 0.078773 0.001045 -7.383495 -17.490363 4.599931 85.192234 82.284259 83.731255 0.353841 -21.357759 -17.715319 -0.009509 0.020630 -0.002418
-49.383304 57.893224 11.725733 179.593796 -51.746233 -2.985989 2.744646 22.973579 2.858636 1.423083 13.202279 1.466426 1.806411 16.384494 1.955712 1.401013 13.153122 1.490032 1.142687 15.705098 3.886813 0.679649 -6.753072 6.722970 2.102740 2.288328 0.490094 -4.235673 -17.886380 -7.892398 -31.970117 -10.560203 88.600587 -10.343130 -8.778069 -25.072403 -11.073074 -2.900081 -2.099269 -5.051066 -18.479700 14.535986 69.293020 -36.909318 -137.932520 -5.644032 4.695102 -29.826914 3.901580 -19.525893 -4.339287 -31.195318 74.215143 -35.904502 6.253824 -14.626763 12.220253 0.024034 0.081953 0.009300 -7.380292 -17.488645 4.600841 85.217999 82.287858 83.756800 0.361893 -21.367238 -17.717710 -0.010183 0.025939 -0.001186
-49.384900 57.892667 11.720547 179.607475 -51.766045 -2.978993 2.723176 22.971362 2.854140 1.397643 13.174402 1.473358 1.805920 16.374809 1.955519 1.389771 13.140096 1.492606 1.120697 15.726757 3.807191 0.706598 -6.691871 6.556219 2.152469 2.338138 0.453459 -4.239051 -17.875141 -7.888753 -31.974409 -10.550861 88.583437 -10.327426 -8.775695 -25.079381 -11.016899 -2.835269 -2.146231 -5.010714 -18.473630 14.531301 69.037117 -36.900701 -137.738309 -5.550392 4.693971 -29.686837 3.892085 -19.504642 -4.349122 -31.249168 74.234244 -35.973621 6.250264 -14.682354 12.215797 0.018626 0.102794 0.019550 -7.371683 -17.467878 4.580649 85.195661 82.291037 83.741834 0.357477 -21.375488 -17.718843 -0.002811 0.027612 0.001605
-49.386178 57.891124 11.716525 179.619375 -51.776081 -2.974070 2.709466 22.975348 2.844294 1.383681 13.092336 1.513741 1.793360 16.402060 1.932932 1.380875 13.126799 1.495108 1.108626 15.761440 3.728358 0.719215 -6.643640 6.404327 2.190583 2.390100 0.424257 -4.227530 -17.866968 -7.887981 -31.993973 -10.538917 88.563056 -10.315876 -8.770980 -25.083196 -10.931837 -2.772345 -2.182631 -5.053898 -18.460112 14.518700 68.818589 -36.917363 -137.519452 -5.450834 4.692075 -29.531344 3.886968 -19.491654 -4.355493 -31.281738 74.239047 -36.013917 6.233104 -14.720005 12.211375 0.015709 0.102258 0.025901 -7.372564 -17.459583 4.565903 85.240280 82.287437 83.780423 0.355715 -21.385293 -17.714549 -0.010422 0.027699 -0.000011
-49.390992 57.891529 11.711169 179.646988 -51.799351 -2.961369 2.676735 22.967162 2.826551 1.373479 13.076793 1.514215 1.782811 16.384836 1.935120 1.372453 13.112943 1.497134 1.089656 15.741603 3.599120 0.730521 -6.536413 6.310195 2.229282 2.446757 0.399640 -4.230733 -17.861877 -7.886596 -32.009230 -10.523921 88.541202 -10.312177 -8.767952 -25.084301 -10.887231 -2.697578 -2.223377 -5.063624 -18.450809 14.517745 68.608579 -36.943854 -137.295093 -5.341774 4.685827 -29.361624 3.885480 -19.463260 -4.381648 -31.319433 74.261685 -36.066076 6.202323 -14.771188 12.215417 0.010438 0.100553 0.031766 -7.370172 -17.441086 4.529759 85.266028 82.285994 83.802834 0.338556 -21.391201 -17.702097 -0.005668 0.026747 -0.000666
-49.392554 57.890243 11.707907 179.653283 -51.808126 -2.952152 2.660133 22.922463 2.834893 1.365561 13.079001 1.506687 1.772158 16.367402 1.936768 1.369056 13.142216 1.487959 1.080062 15.730533 3.534759 0.742525 -6.477834 6.171364 2.293259 2.433060 0.384872 -4.262423 -17.832677 -7.882168 -32.008587 -10.503908 88.523886 -10.297333 -8.762511 -25.097979 -10.851063 -2.658483 -2.240430 -5.017380 -18.420070 14.527266 68.385050 -36.959263 -137.112066 -5.231308 4.675716 -29.178712 3.894880 -19.451995 -4.391110 -31.351127 74.271684 -36.102313 6.212213 -14.831394 12.199341 0.009806 0.100396 0.043189 -7.362921 -17.435529 4.517497 85.289305 82.281082 83.821898 0.329361 -21.395103 -17.693328 -0.008970 0.028117 -0.001122
-49.392930 57.888552 11.705612 179.657743 -51.812423 -2.949024 2.652481 22.906443 2.835484 1.362120 13.048534 1.516240 1.762403 16.351090 1.938365 1.361121 13.165708 1.480280 1.074220 15.724890 3.470031 0.752626 -6.421831 6.037047 2.323732 2.450376 0.372876 -4.223261 -17.857634 -7.872617 -32.025115 -10.457132 88.488311 -10.272360 -8.762789 -25.126110 -10.823306 -2.615768 -2.257442 -5.008814 -18.408542 14.525973 68.165332 -36.984685 -136.872867 -5.130162 4.665649 -28.985707 3.905138 -19.448565 -4.392111 -31.392283 74.278877 -36.145313 6.216567 -14.869356 12.193344 0.003905 0.112073 0.052182 -7.346209 -17.430726 4.516071 85.216288 82.284534 83.757254 0.319187 -21.398307 -17.692896 -0.000426 0.032010 0.005435
-49.391746 57.887439 11.703510 179.662558 -51.819948 -2.955831 2.652587 22.841212 2.872775 1.348529 13.074787 1.502364 1.755992 16.366235 1.930114 1.353301 13.116667 1.489767 1.068894 15.771129 3.412136 0.760760 -6.382353 5.894245 2.351852 2.504649 0.358120 -4.215740 -17.855486 -7.866618 -32.031084 -10.437382 88.468258 -10.259535 -8.748018 -25.139874 -10.811140 -2.538813 -2.291064 -4.927909 -18.347203 14.549584 67.950000 -36.993658 -136.712087 -5.036363 4.654027 -28.795091 3.912556 -19.443470 -4.381438 -31.442225 74.280169 -36.191191 6.212000 -14.884044 12.194376 0.016410 0.095294 0.047442 -7.337866 -17.422377 4.523211 85.193405 82.292928 83.742748 0.314543 -21.403291 -17.691770 0.000634 0.030520 0.005543
-49.394449 57.889175 11.699362 179.686525 -51.848884 -2.954793 2.631278 22.846279 2.864570 1.343544 13.078087 1.499915 1.742596 16.321234 1.946652 1.354530 13.111644 1.484664 1.061018 15.833724 3.377002 0.768203 -6.368660 5.731016 2.375112 2.551637 0.339160 -4.210759 -17.853221 -7.856951 -32.034027 -10.419510 88.446711 -10.246551 -8.707900 -25.144112 -10.783338 -2.472877 -2.320252 -4.887373 -18.292935 14.560273 67.729444 -37.011483 -136.516278 -4.941805 4.634888 -28.618142 3.917798 -19.412223 -4.392542 -31.494043 74.290469 -36.245447 6.194234 -14.921170 12.191496 0.016654 0.090933 0.052441 -7.330563 -17.393682 4.505174 85.175042 82.296920 83.726191 0.301925 -21.407150 -17.683087 0.004872 0.028038 0.006851
-49.395581 57.888033 11.697961 179.683723 -51.855944 -2.942815 2.628971 22.845443 2.857840 1.339605 13.065339 1.504690 1.723133 16.290054 1.964875 1.335463 13.072993 1.500393 1.059589 15.887199 3.278009 0.779433 -6.325829 5.601954 2.415699 2.626556 0.288356 -4.200990 -17.856920 -7.844808 -32.033797 -10.402029 88.425953 -10.238339 -8.712453 -25.152362 -10.724723 -2.389488 -2.380847 -4.863323 -18.245224 14.565728 67.507140 -37.039104 -136.307011 -4.841250 4.603227 -28.456402 3.938026 -19.402917 -4.393962 -31.529760 74.298843 -36.284722 6.179866 -14.986786 12.167494 0.010617 0.086454 0.064002 -7.312185 -17.386150 4.502458 85.145950 82.304097 83.698241 0.294202 -21.413076 -17.675288 0.008600 0.030160 0.008662
-49.396629 57.887779 11.696140 179.690470 -51.869032 -2.939573 2.613077 22.830586 2.858422 1.330011 13.061244 1.506808 1.722284 16.308305 1.959709 1.320139 13.047126 1.524147 1.039606 15.886505 3.158570 0.801222 -6.276613 5.505040 2.446144 2.646201 0.254380 -4.189410 -17.858325 -7.839734 -32.037965 -10.386403 88.398901 -10.234350 -8.708381 -25.154532 -10.682812 -2.353751 -2.415214 -4.829997 -18.189679 14.566809 67.284161 -37.070448 -136.107320 -4.731652 4.559109 -28.309834 3.955454 -19.387900 -4.395121 -31.591266 74.306270 -36.346444 6.170433 -15.031730 12.161395 0.005549 0.087505 0.068933 -7.301784 -17.373290 4.500076 85.127958 82.304540 83.680342 0.281226 -21.416358 -17.668776 0.010285 0.031899 0.011383
-49.399813 57.889118 11.693164 179.712738 -51.893311 -2.936483 2.586807 22.820229 2.867657 1.314392 13.062036 1.508898 1.715068 16.333944 1.936499 1.317643 13.046573 1.523301 1.032091 15.885811 3.102198 0.810653 -6.253050 5.379325 2.464217 2.631104 0.250534 -4.181443 -17.857415 -7.837847 -32.037626 -10.371953 88.371063 -10.234613 -8.686856 -25.144543 -10.652523 -2.340940 -2.420918 -4.801774 -18.128799 14.571850 67.053254 -37.094384 -135.910237 -4.610947 4.513848 -28.181179 3.969502 -19.360039 -4.408214 -31.643012 74.315713 -36.402491 6.157646 -15.062781 12.171778 0.003472 0.074221 0.060990 -7.302210 -17.350877 4.479619 85.117521 82.305743 83.665227 0.274569 -21.415852 -17.660764 0.012665 0.030392 0.011859
-49.403050 57.888645 11.691798 179.722723 -51.903191 -2.924073 2.575667 22.812215 2.859862 1.308296 13.053913 1.515307 1.703637 16.338765 1.939333 1.313843 13.057168 1.513468 1.025666 15.884704 3.043792 0.816873 -6.223922 5.263021 2.471211 2.633689 0.242406 -4.170615 -17.874480 -7.824560 -32.017282 -10.348522 88.360744 -10.220766 -8.710644 -25.168077 -10.627842 -2.323405 -2.416988 -4.772813 -18.068280 14.575296 66.808372 -37.100572 -135.708458 -4.482447 4.479369 -28.065853 3.980850 -19.349141 -4.423523 -31.685471 74.328926 -36.455925 6.150585 -15.100067 12.180666 -0.004463 0.078986 0.059970 -7.296874 -17.343790 4.464520 85.121689 82.306244 83.653256 0.268617 -21.418411 -17.639764 0.000883 0.031143 0.005538
